<svg width="16" height="16" viewBox="0 0 25 28" fill="none" xmlns="http://www.w3.org/2000/svg">
<path d="M25 13.9863C25.0009 14.3426 24.9066 14.6927 24.7269 15.0004C24.5471 15.308 24.2884 15.5621 23.9775 15.7363L2.9875 27.7375C2.6863 27.9082 2.34624 27.9986 2 28C1.68099 27.9983 1.36702 27.9203 1.08429 27.7725C0.801568 27.6247 0.558297 27.4115 0.374786 27.1505C0.191276 26.8896 0.0728511 26.5885 0.0293988 26.2725C-0.0140534 25.9564 0.0187274 25.6346 0.125005 25.3338L3.5 15.34C3.53299 15.2423 3.59538 15.1572 3.67862 15.0963C3.76187 15.0355 3.8619 15.0018 3.965 15H13C13.1371 15.0003 13.2728 14.9724 13.3986 14.9181C13.5245 14.8637 13.6378 14.7841 13.7316 14.6841C13.8254 14.5841 13.8976 14.4659 13.9438 14.3368C13.9899 14.2077 14.0091 14.0705 14 13.9338C13.9773 13.6766 13.8583 13.4375 13.6669 13.2644C13.4754 13.0912 13.2256 12.9968 12.9675 13H3.9675C3.8629 13 3.76092 12.9672 3.67593 12.9062C3.59095 12.8452 3.52723 12.7591 3.49375 12.66L0.118755 2.66751C-0.0155773 2.2845 -0.0301971 1.86969 0.0768374 1.47817C0.183872 1.08665 0.407494 0.736971 0.717997 0.475573C1.0285 0.214176 1.41119 0.0534367 1.81522 0.0147106C2.21925 -0.0240156 2.6255 0.0611039 2.98 0.258761L23.98 12.245C24.2891 12.4188 24.5465 12.6716 24.7257 12.9776C24.905 13.2835 24.9996 13.6317 25 13.9863Z" fill="white"/>
</svg>
