<svg width="16" height="16" viewBox="0 0 25 27" fill="none" xmlns="http://www.w3.org/2000/svg">
<path d="M23.5 4.5H18.5V3.5C18.5 2.70435 18.1839 1.94129 17.6213 1.37868C17.0587 0.816071 16.2956 0.5 15.5 0.5H9.5C8.70435 0.5 7.94129 0.816071 7.37868 1.37868C6.81607 1.94129 6.5 2.70435 6.5 3.5V4.5H1.5C1.23478 4.5 0.98043 4.60536 0.792893 4.79289C0.605357 4.98043 0.5 5.23478 0.5 5.5C0.5 5.76522 0.605357 6.01957 0.792893 6.20711C0.98043 6.39464 1.23478 6.5 1.5 6.5H2.5V24.5C2.5 25.0304 2.71071 25.5391 3.08579 25.9142C3.46086 26.2893 3.96957 26.5 4.5 26.5H20.5C21.0304 26.5 21.5391 26.2893 21.9142 25.9142C22.2893 25.5391 22.5 25.0304 22.5 24.5V6.5H23.5C23.7652 6.5 24.0196 6.39464 24.2071 6.20711C24.3946 6.01957 24.5 5.76522 24.5 5.5C24.5 5.23478 24.3946 4.98043 24.2071 4.79289C24.0196 4.60536 23.7652 4.5 23.5 4.5ZM10.5 19.5C10.5 19.7652 10.3946 20.0196 10.2071 20.2071C10.0196 20.3946 9.76522 20.5 9.5 20.5C9.23478 20.5 8.98043 20.3946 8.79289 20.2071C8.60536 20.0196 8.5 19.7652 8.5 19.5V11.5C8.5 11.2348 8.60536 10.9804 8.79289 10.7929C8.98043 10.6054 9.23478 10.5 9.5 10.5C9.76522 10.5 10.0196 10.6054 10.2071 10.7929C10.3946 10.9804 10.5 11.2348 10.5 11.5V19.5ZM16.5 19.5C16.5 19.7652 16.3946 20.0196 16.2071 20.2071C16.0196 20.3946 15.7652 20.5 15.5 20.5C15.2348 20.5 14.9804 20.3946 14.7929 20.2071C14.6054 20.0196 14.5 19.7652 14.5 19.5V11.5C14.5 11.2348 14.6054 10.9804 14.7929 10.7929C14.9804 10.6054 15.2348 10.5 15.5 10.5C15.7652 10.5 16.0196 10.6054 16.2071 10.7929C16.3946 10.9804 16.5 11.2348 16.5 11.5V19.5ZM16.5 4.5H8.5V3.5C8.5 3.23478 8.60536 2.98043 8.79289 2.79289C8.98043 2.60536 9.23478 2.5 9.5 2.5H15.5C15.7652 2.5 16.0196 2.60536 16.2071 2.79289C16.3946 2.98043 16.5 3.23478 16.5 3.5V4.5Z" fill="white" fill-opacity="0.3"/>
</svg>
